<svg xmlns="http://www.w3.org/2000/svg" width="27" height="22.5" viewBox="0 0 27 22.5"><defs><style>.a{fill:#fff;}</style></defs><g transform="translate(-4.5 -6.75)"><path class="a" d="M4.5,14.055V28.695a.539.539,0,0,0,.527.555h6.418a.539.539,0,0,0,.527-.555V14.055a.539.539,0,0,0-.527-.555H5.027A.539.539,0,0,0,4.5,14.055Z"/><path class="a" d="M14.055,6.75a.552.552,0,0,0-.555.555V29.25h8.445a.552.552,0,0,0,.555-.555V7.305a.552.552,0,0,0-.555-.555Z"/><path class="a" d="M30.649,18H24.158a.541.541,0,0,0-.533.555V28.695a.541.541,0,0,0,.533.555h6.491a.541.541,0,0,0,.533-.555V18.555A.541.541,0,0,0,30.649,18Z" transform="translate(0.318)"/></g></svg>